<?xml version="1.0" encoding="utf-8"?>
<!-- Generator: Adobe Illustrator 15.0.1, SVG Export Plug-In  -->
<!DOCTYPE svg [
	<!ENTITY ns_flows "http://ns.adobe.com/Flows/1.0/">
]>
<svg version="1.2" baseProfile="tiny"
	 xmlns="http://www.w3.org/2000/svg" xmlns:xlink="http://www.w3.org/1999/xlink" xmlns:a="http://ns.adobe.com/AdobeSVGViewerExtensions/3.0/"
	 x="0px" y="0px" width="419px" height="123px" viewBox="0 0.063 419 123" overflow="visible" xml:space="preserve">
<defs>
</defs>
<path id="XMLID_10_" fill-rule="evenodd" fill="#25367A" d="M118.642,32.798c-7.652-0.264-11.912,4.705-12.252,11.723h23.066
	C129.895,37.118,125.537,33.036,118.642,32.798L118.642,32.798z M151.061,59.866h-44.604c0.961,6.293,5.738,11.892,17.197,11.188
	c8.648-0.53,13.136-2.403,18.619-4.868l7.609,15.941c-11.264,5.508-16.019,7.012-28.897,7.566
	C98.906,90.652,83.709,75.891,82.797,54.5c-0.915-21.316,12.568-38.952,35.86-38.952c21.149,0,33.2,14.226,33.115,33.765
	C151.755,52.905,151.438,56.713,151.061,59.866z"/>
<polygon id="XMLID_9_" fill-rule="evenodd" fill="#25367A" points="51.73,88.036 51.73,53.16 24.141,53.16 24.141,88.036 0,88.036 
	0,0.063 24.141,0.063 24.141,33.285 51.73,33.285 51.73,0.063 75.875,0.063 75.875,88.036 "/>
<path id="XMLID_6_" fill-rule="evenodd" fill="#25367A" d="M319.528,15.548c9.708,0,18.453,3.836,24.968,9.822
	c7.385,6.794,11.689,16.162,11.689,27.261c0,9.884-3.171,19.409-9.452,26.067c-6.688,7.091-16.428,11.002-27.205,11.002
	c-10.436,0-20.01-3.793-26.779-10.532c-6.548-6.522-9.774-16.52-9.886-26.537c-0.12-10.992,3.907-20.639,10.724-27.376
	C300.204,18.722,309.321,15.548,319.528,15.548L319.528,15.548z M319.591,34.859c-8.324,0-14.057,6.984-13.923,17.069
	c0.14,10.091,5.674,16.73,13.923,16.73c8.252,0,14.086-7.309,14.086-16.73C333.677,42.51,327.914,34.859,319.591,34.859z"/>
<path id="XMLID_5_" fill-rule="evenodd" fill="#25367A" d="M181.726,53.999l0.201,33.977h-22.415V17.273h15.405l3.934,8.231
	c7.514-9.348,17.706-10.786,27.547-9.196l2.171,4.371l-7.926,17.032C191.119,35.022,181.645,39.073,181.726,53.999z"/>
<path id="XMLID_2_" fill-rule="evenodd" fill="#25367A" d="M276.768,89.475c0,27.87-19.391,32.887-36.053,33.116
	c-10.817,0.047-18.72-2.283-27.539-7.354l8.602-18.35c5.247,2.886,9.684,4.907,17.884,4.768c9.587-0.026,15.106-3.228,14.952-12.325
	c-0.024-1.278-0.036-3.108-0.031-4.84c-4.051,2.451-8.871,4.064-14.498,4.447c-17.491,1.176-35.899-11.063-35.978-36.307
	c-0.032-10.992,3.902-20.639,10.725-27.376c6.347-6.262,14.391-9.496,21.801-9.486c7.974,0.004,14.634,2.501,19.902,6.572
	l2.375-5.067h17.862L276.768,89.475L276.768,89.475z M240.835,34.859c-8.987,0-14.064,6.984-13.927,17.069
	c0.143,10.091,4.548,16.69,13.927,16.73c11.549,0.058,13.593-9.798,13.721-16.73C254.685,45,251.774,34.859,240.835,34.859z"/>
<polygon id="XMLID_1_" fill-rule="evenodd" fill="#E30613" points="418.91,43.732 418.898,43.737 418.91,43.742 388.699,87.99 
	358.943,87.955 391.037,43.737 360.359,0 387.924,0.006 "/>
</svg>
